# xmcd
#
# Track frame offsets:
#	150
#	19576
#	34639
#	55945
#	94518
#	112684
#	125525
#	142047
#	166026
#	179699
#	210829
#	230092
#	255077
#	273769
#
# Disc length: 3899 seconds
#
# Revision: 1
# Processed by: cddbd v1.5.2PL0 Copyright (c) Steve Scherf et al.
# Submitted via: EasyCDDAExtractor 15.3.0.1
#
DISCID=aa0f390e
DTITLE=Mijares - En Vivo
DYEAR=2001
DGENRE=Latin
TTITLE0=No Se Murio El Amor
TTITLE1=Corazon Salvaje
TTITLE2=Que Nada Nos Separe
TTITLE3=Popurri (Tan Solo, Me Acordare De Ti, Siempre)
TTITLE4=Bella
TTITLE5=Bonita
TTITLE6=El Breve Espacio
TTITLE7=Te Extraño
TTITLE8=Soldado Del Amor
TTITLE9=Cuando Me Vaya
TTITLE10=No Hace Falta
TTITLE11=Para Amarnos Mas
TTITLE12=El Privilegio De Amar
TTITLE13=Uno Entre Mil
EXTD=
EXTT0=
EXTT1=
EXTT2=
EXTT3=
EXTT4=
EXTT5=
EXTT6=
EXTT7=
EXTT8=
EXTT9=
EXTT10=
EXTT11=
EXTT12=
EXTT13=
PLAYORDER=
